<svg width="216" height="26" viewBox="0 0 216 26" fill="none" xmlns="http://www.w3.org/2000/svg">
<path d="M213.644 12.3139C211.694 11.8083 211.478 11.1944 210.033 10.7972C209.167 10.5806 208.264 11.0861 208.047 11.9528C207.469 14.1556 211.189 15.2389 210.25 18.7417C209.781 20.5472 208.769 20.8361 208.228 22.9667C207.903 24.1583 208.625 25.35 209.781 25.675C210.575 25.8917 211.369 25.6389 211.911 25.0972C212.164 24.9167 212.344 24.5917 212.489 24.0861C212.886 22.6417 212.706 21.5222 213.175 19.825C213.717 17.7306 214.981 16.0333 215.233 15.0222C215.739 13.1806 214.331 12.4583 213.644 12.3139Z" fill="#23506C"/>
<path d="M209.917 7.21063C209.416 7.07643 208.847 7.5767 208.646 8.328C208.444 9.0793 208.687 9.79714 209.188 9.93134C209.689 10.0655 210.258 9.56527 210.459 8.81397C210.661 8.06267 210.418 7.34483 209.917 7.21063Z" fill="#23506C"/>
<path d="M211.671 8.21964C211.267 8.11124 210.809 8.50749 210.649 9.10468C210.489 9.70187 210.687 10.2739 211.092 10.3822C211.496 10.4906 211.954 10.0944 212.114 9.4972C212.274 8.90001 212.076 8.32803 211.671 8.21964Z" fill="#23506C"/>
<path d="M213.15 9.09748C212.803 9.00458 212.409 9.35091 212.27 9.87104C212.13 10.3912 212.299 10.8881 212.645 10.981C212.992 11.074 213.386 10.7276 213.525 10.2075C213.665 9.68735 213.497 9.19039 213.15 9.09748Z" fill="#23506C"/>
<path d="M214.321 9.9838C214.051 9.91154 213.74 10.1965 213.627 10.6203C213.513 11.0441 213.64 11.4463 213.91 11.5186C214.179 11.5908 214.49 11.3058 214.604 10.882C214.717 10.4582 214.59 10.0561 214.321 9.9838Z" fill="#23506C"/>
<path d="M215.352 10.7005C215.109 10.6111 214.8 10.8421 214.663 11.2165C214.525 11.5909 214.611 11.9669 214.854 12.0563C215.098 12.1457 215.406 11.9147 215.544 11.5403C215.682 11.1659 215.596 10.7899 215.352 10.7005Z" fill="#23506C"/>
<path d="M203.75 11.9167C202.811 8.41389 206.531 7.33056 205.953 5.12778C205.736 4.26111 204.833 3.71945 203.967 3.97223C202.558 4.36945 202.306 4.94723 200.356 5.48889C199.669 5.66945 198.297 6.39167 198.767 8.23334C199.056 9.24445 200.283 10.9778 200.825 13.0361C201.294 14.7333 201.114 15.8528 201.511 17.2972C201.656 17.8028 201.836 18.1278 202.089 18.3083C202.631 18.85 203.425 19.1028 204.219 18.8861C205.411 18.5611 206.097 17.3694 205.772 16.1778C205.231 14.0111 204.256 13.7222 203.75 11.9167Z" fill="#23506C"/>
<path d="M204.832 3.09168C205.333 2.95748 205.576 2.23965 205.375 1.48834C205.174 0.737042 204.604 0.23678 204.103 0.370978C203.603 0.505176 203.36 1.22301 203.561 1.97432C203.762 2.72562 204.332 3.22588 204.832 3.09168Z" fill="#23506C"/>
<path d="M202.924 3.5713C203.329 3.46291 203.527 2.89093 203.367 2.29374C203.207 1.69655 202.749 1.3003 202.345 1.40869C201.94 1.51708 201.742 2.08906 201.902 2.68625C202.062 3.28344 202.52 3.67969 202.924 3.5713Z" fill="#23506C"/>
<path d="M201.332 4.15884C201.679 4.06594 201.847 3.56897 201.708 3.04884C201.568 2.52871 201.174 2.18237 200.827 2.27528C200.481 2.36818 200.312 2.86515 200.452 3.38528C200.591 3.90541 200.985 4.25175 201.332 4.15884Z" fill="#23506C"/>
<path d="M200.095 4.70317C200.365 4.63091 200.491 4.22876 200.378 3.80495C200.264 3.38114 199.953 3.09615 199.684 3.16841C199.414 3.24067 199.287 3.64282 199.401 4.06663C199.515 4.49044 199.825 4.77543 200.095 4.70317Z" fill="#23506C"/>
<path d="M199.12 5.23283C199.363 5.14342 199.449 4.76742 199.311 4.39302C199.174 4.01862 198.865 3.78759 198.621 3.87701C198.378 3.96642 198.292 4.34242 198.43 4.71682C198.567 5.09122 198.876 5.32225 199.12 5.23283Z" fill="#23506C"/>
<path d="M10.4727 7.0862V10.331H3.91867V13.8363H8.82274V16.9863H3.91867V23.7127H0V7.0862H10.4727Z" fill="url(#paint0_angular_11_38)"/>
<path d="M18.353 23.9022C17.1003 23.9022 15.9697 23.6259 14.9614 23.0732C13.9684 22.5206 13.1816 21.7311 12.6011 20.7048C12.0358 19.6785 11.7532 18.4784 11.7532 17.1047C11.7532 15.7468 12.0434 14.5547 12.624 13.5284C13.2045 12.4863 13.9989 11.6889 15.0073 11.1362C16.0156 10.5836 17.1461 10.3073 18.3989 10.3073C19.6516 10.3073 20.7821 10.5836 21.7905 11.1362C22.7988 11.6889 23.5932 12.4863 24.1737 13.5284C24.7543 14.5547 25.0446 15.7468 25.0446 17.1047C25.0446 18.4626 24.7466 19.6627 24.1508 20.7048C23.5703 21.7311 22.7682 22.5206 21.7446 23.0732C20.7363 23.6259 19.6058 23.9022 18.353 23.9022ZM18.353 20.3969C19.1016 20.3969 19.7356 20.1127 20.2551 19.5442C20.7898 18.9758 21.0571 18.1626 21.0571 17.1047C21.0571 16.0468 20.7974 15.2337 20.278 14.6652C19.7738 14.0968 19.1475 13.8126 18.3989 13.8126C17.635 13.8126 17.001 14.0968 16.4968 14.6652C15.9927 15.2179 15.7406 16.031 15.7406 17.1047C15.7406 18.1626 15.985 18.9758 16.4739 19.5442C16.9781 20.1127 17.6044 20.3969 18.353 20.3969Z" fill="url(#paint1_angular_11_38)"/>
<path d="M31.0422 6.18619V23.7127H27.1235V6.18619H31.0422Z" fill="url(#paint2_angular_11_38)"/>
<path d="M37.8007 6.18619V23.7127H33.882V6.18619H37.8007Z" fill="url(#paint3_angular_11_38)"/>
<path d="M46.4612 23.9022C45.2084 23.9022 44.0779 23.6259 43.0696 23.0732C42.0766 22.5206 41.2898 21.7311 40.7092 20.7048C40.144 19.6785 39.8613 18.4784 39.8613 17.1047C39.8613 15.7468 40.1516 14.5547 40.7321 13.5284C41.3127 12.4863 42.1071 11.6889 43.1154 11.1362C44.1237 10.5836 45.2543 10.3073 46.507 10.3073C47.7598 10.3073 48.8903 10.5836 49.8986 11.1362C50.9069 11.6889 51.7014 12.4863 52.2819 13.5284C52.8625 14.5547 53.1527 15.7468 53.1527 17.1047C53.1527 18.4626 52.8548 19.6627 52.259 20.7048C51.6785 21.7311 50.8764 22.5206 49.8528 23.0732C48.8445 23.6259 47.7139 23.9022 46.4612 23.9022ZM46.4612 20.3969C47.2098 20.3969 47.8438 20.1127 48.3632 19.5442C48.898 18.9758 49.1653 18.1626 49.1653 17.1047C49.1653 16.0468 48.9056 15.2337 48.3862 14.6652C47.882 14.0968 47.2556 13.8126 46.507 13.8126C45.7432 13.8126 45.1091 14.0968 44.605 14.6652C44.1008 15.2179 43.8487 16.031 43.8487 17.1047C43.8487 18.1626 44.0932 18.9758 44.5821 19.5442C45.0862 20.1127 45.7126 20.3969 46.4612 20.3969Z" fill="url(#paint4_angular_11_38)"/>
<path d="M73.5875 10.4968L70.1272 23.7127H65.796L63.7794 15.1389L61.694 23.7127H57.3858L53.9025 10.4968H57.8212L59.6316 19.9469L61.7857 10.4968H65.9335L68.1106 19.8995L69.898 10.4968H73.5875Z" fill="url(#paint5_angular_11_38)"/>
<path d="M87.1359 16.8916C87.1359 17.2705 87.1129 17.6653 87.0671 18.0758H78.1985C78.2596 18.8969 78.5117 19.5285 78.9548 19.9706C79.4131 20.3969 79.9707 20.61 80.6277 20.61C81.6054 20.61 82.2853 20.1837 82.6672 19.3311H86.838C86.6241 20.1995 86.2345 20.9811 85.6692 21.6758C85.1192 22.3706 84.4241 22.9153 83.5838 23.3101C82.7436 23.7048 81.804 23.9022 80.7652 23.9022C79.5124 23.9022 78.3971 23.6259 77.4194 23.0732C76.4416 22.5206 75.6778 21.7311 75.1278 20.7048C74.5778 19.6785 74.3028 18.4784 74.3028 17.1047C74.3028 15.731 74.5701 14.531 75.1049 13.5047C75.6548 12.4784 76.4187 11.6889 77.3965 11.1362C78.3742 10.5836 79.4971 10.3073 80.7652 10.3073C82.0026 10.3073 83.1026 10.5757 84.0651 11.1126C85.0276 11.6494 85.7762 12.4152 86.3109 13.41C86.8609 14.4047 87.1359 15.5652 87.1359 16.8916ZM83.1255 15.8258C83.1255 15.131 82.8964 14.5784 82.438 14.1679C81.9797 13.7573 81.4068 13.5521 80.7193 13.5521C80.0624 13.5521 79.5048 13.7494 79.0464 14.1442C78.6034 14.5389 78.3284 15.0995 78.2215 15.8258H83.1255Z" fill="url(#paint6_angular_11_38)"/>
<path d="M93.1218 12.6994C93.5802 11.9731 94.1531 11.4047 94.8405 10.9941C95.528 10.5678 96.2919 10.3547 97.1322 10.3547V14.6416H96.0551C95.0773 14.6416 94.344 14.8626 93.8551 15.3047C93.3663 15.731 93.1218 16.4889 93.1218 17.5784V23.7127H89.2032V10.4968H93.1218V12.6994Z" fill="url(#paint7_angular_11_38)"/>
<path d="M104.207 23.9022C103.092 23.9022 102.099 23.7048 101.228 23.3101C100.357 22.9153 99.6698 22.3785 99.1656 21.6995C98.6615 21.0048 98.3788 20.2311 98.3177 19.3785H102.191C102.236 19.8364 102.443 20.2074 102.809 20.4916C103.176 20.7758 103.627 20.9179 104.161 20.9179C104.65 20.9179 105.025 20.8232 105.284 20.6337C105.559 20.4285 105.697 20.1679 105.697 19.8521C105.697 19.4732 105.506 19.1969 105.124 19.0232C104.742 18.8337 104.123 18.6284 103.268 18.4074C102.351 18.1863 101.587 17.9574 100.976 17.7205C100.365 17.4679 99.8378 17.0811 99.3948 16.56C98.9517 16.0231 98.7302 15.3047 98.7302 14.4047C98.7302 13.6468 98.9288 12.96 99.326 12.3442C99.7385 11.7126 100.334 11.2152 101.114 10.852C101.908 10.4889 102.847 10.3073 103.932 10.3073C105.536 10.3073 106.797 10.7178 107.713 11.5389C108.645 12.3599 109.18 13.4494 109.318 14.8073H105.697C105.636 14.3494 105.437 13.9863 105.101 13.7179C104.78 13.4494 104.352 13.3152 103.818 13.3152C103.359 13.3152 103.008 13.41 102.763 13.5994C102.519 13.7731 102.397 14.0179 102.397 14.3337C102.397 14.7126 102.588 14.9968 102.97 15.1863C103.367 15.3758 103.978 15.5652 104.803 15.7547C105.75 16.0074 106.522 16.26 107.118 16.5126C107.713 16.7495 108.233 17.1442 108.676 17.6968C109.134 18.2337 109.371 18.96 109.386 19.8758C109.386 20.6495 109.172 21.3443 108.745 21.9601C108.332 22.5601 107.729 23.0338 106.934 23.3811C106.155 23.7285 105.246 23.9022 104.207 23.9022Z" fill="url(#paint8_angular_11_38)"/>
<path d="M117.479 22.51C117.106 21.9395 116.883 21.3073 116.808 20.6134C116.733 19.9041 116.733 19.1639 116.808 18.393C116.883 17.622 117.002 16.8433 117.166 16.0569C117.33 15.2705 117.472 14.5149 117.591 13.7902C117.711 13.0501 117.778 12.3639 117.793 11.7317C117.808 11.0841 117.703 10.529 117.479 10.0664C117.36 9.81966 117.196 9.70402 116.987 9.71943C116.793 9.71943 116.577 9.75027 116.338 9.81195C116.114 9.85821 115.883 9.87363 115.644 9.85821C115.421 9.84279 115.219 9.69631 115.04 9.41875C115.055 9.35707 115.115 9.27998 115.219 9.18746C115.309 9.07952 115.376 9.01784 115.421 9.00242C116.763 8.80197 117.882 8.94846 118.777 9.44188C119.688 9.91989 120.411 10.6061 120.948 11.5004C121.485 12.3793 121.851 13.3893 122.045 14.5303C122.254 15.6714 122.328 16.8047 122.269 17.9304C122.209 19.056 122.037 20.1045 121.754 21.076C121.47 22.032 121.112 22.7721 120.68 23.2964C120.247 23.8206 119.755 24.0519 119.203 23.9903C118.651 23.9286 118.076 23.4352 117.479 22.51ZM118.643 21.7005C118.658 21.7467 118.703 21.8084 118.777 21.8855C118.852 21.9626 118.927 22.0474 119.001 22.1399C119.091 22.2324 119.173 22.3172 119.247 22.3943C119.322 22.456 119.374 22.4946 119.404 22.51C119.956 22.1862 120.366 21.7467 120.635 21.1916C120.903 20.6365 121.06 20.0197 121.105 19.3413C121.165 18.6628 121.135 17.9535 121.015 17.2134C120.911 16.4578 120.754 15.7331 120.545 15.0392C120.337 14.3453 120.09 13.7054 119.807 13.1195C119.538 12.5335 119.277 12.0555 119.024 11.6854C119.009 11.8859 118.979 12.1943 118.934 12.6106C118.889 13.0269 118.845 13.4972 118.8 14.0215C118.755 14.5458 118.703 15.1009 118.643 15.6868C118.583 16.2728 118.524 16.8356 118.464 17.3753C118.419 17.8995 118.375 18.3698 118.33 18.7862C118.285 19.2025 118.255 19.5109 118.24 19.7113C118.225 19.8655 118.225 20.0429 118.24 20.2433C118.27 20.4283 118.307 20.6134 118.352 20.7984C118.397 20.9834 118.442 21.1608 118.486 21.3304C118.546 21.4846 118.598 21.6079 118.643 21.7005Z" fill="url(#paint9_angular_11_38)"/>
<path d="M128.132 23.3195C128.102 23.2578 128.065 23.173 128.02 23.0651C127.99 22.9417 127.953 22.8184 127.908 22.695C127.878 22.5562 127.841 22.4329 127.796 22.3249C127.766 22.217 127.751 22.1399 127.751 22.0937C127.737 21.924 127.714 21.6619 127.684 21.3073C127.669 20.9526 127.647 20.5517 127.617 20.1045C127.587 19.6574 127.557 19.1871 127.528 18.6936C127.513 18.1848 127.49 17.7068 127.461 17.2596C127.431 16.8124 127.408 16.4115 127.393 16.0569C127.378 15.7022 127.371 15.4401 127.371 15.2705C127.341 15.2551 127.274 15.2474 127.17 15.2474C127.065 15.2474 126.998 15.2551 126.968 15.2705C126.849 15.3013 126.64 15.3553 126.342 15.4324C126.058 15.5095 125.752 15.5943 125.424 15.6868L124.484 15.9181C124.186 15.9952 123.984 16.0492 123.88 16.08L122.895 15.0623L127.371 13.6746L128.132 4.83914C128.192 4.26861 128.363 3.78289 128.647 3.38198C128.93 2.98107 129.266 2.66497 129.654 2.43368C130.042 2.20239 130.437 2.06361 130.84 2.01735C131.258 1.97109 131.616 2.01735 131.914 2.15613C132.212 2.27948 132.421 2.50307 132.541 2.82688C132.66 3.13527 132.623 3.53618 132.429 4.02961C132.205 4.19922 132.026 4.26861 131.892 4.23777C131.772 4.20693 131.675 4.13754 131.601 4.02961C131.541 3.90625 131.489 3.76747 131.444 3.61328C131.399 3.45908 131.34 3.33573 131.265 3.24321C130.982 2.95024 130.728 2.85772 130.504 2.96566C130.295 3.05817 130.109 3.29718 129.945 3.68267C129.78 4.05274 129.639 4.52303 129.519 5.09356C129.4 5.66408 129.303 6.28087 129.228 6.94391C129.154 7.59153 129.094 8.25457 129.049 8.93304C129.005 9.59608 128.967 10.2052 128.938 10.7603C128.923 11.3154 128.915 11.7857 128.915 12.1711V12.865C129.214 12.9575 129.542 12.9498 129.9 12.8419C130.273 12.734 130.646 12.5798 131.019 12.3793C131.407 12.1789 131.787 11.9707 132.16 11.7548C132.533 11.5235 132.884 11.3462 133.212 11.2228C133.54 11.0995 133.831 11.0609 134.085 11.1072C134.353 11.1535 134.57 11.3462 134.734 11.6854L133.995 12.4718L129.318 14.4841L128.915 14.8773C128.9 14.9081 128.885 15.124 128.87 15.5249C128.87 15.9258 128.87 16.4038 128.87 16.9589C128.87 17.514 128.87 18.0846 128.87 18.6705C128.885 19.241 128.9 19.7113 128.915 20.0814C128.93 20.251 128.982 20.5054 129.072 20.8447C129.176 21.1839 129.258 21.5463 129.318 21.9317C129.393 22.3172 129.408 22.6796 129.363 23.0188C129.333 23.3426 129.184 23.5739 128.915 23.7127C128.751 23.7898 128.594 23.7744 128.445 23.6665C128.311 23.5585 128.206 23.4429 128.132 23.3195Z" fill="url(#paint10_angular_11_38)"/>
<path d="M151.914 12.3442C151.623 11.7915 151.203 11.3731 150.653 11.0889C150.118 10.7889 149.484 10.6389 148.751 10.6389C147.483 10.6389 146.467 11.0731 145.703 11.9415C144.939 12.7942 144.557 13.9389 144.557 15.3758C144.557 16.9074 144.955 18.1074 145.749 18.9758C146.559 19.8285 147.666 20.2548 149.072 20.2548C150.034 20.2548 150.844 20.0021 151.501 19.4969C152.173 18.9916 152.662 18.2653 152.968 17.3179H147.995V14.3337H156.52V18.0995C156.229 19.11 155.733 20.0495 155.03 20.9179C154.343 21.7864 153.464 22.489 152.395 23.0259C151.325 23.5627 150.118 23.8311 148.774 23.8311C147.185 23.8311 145.764 23.4759 144.512 22.7653C143.274 22.039 142.304 21.0364 141.601 19.7574C140.914 18.4784 140.57 17.0179 140.57 15.3758C140.57 13.7336 140.914 12.2731 141.601 10.9941C142.304 9.69939 143.274 8.69675 144.512 7.98621C145.749 7.25989 147.162 6.89672 148.751 6.89672C150.676 6.89672 152.295 7.37831 153.609 8.34148C154.938 9.30465 155.817 10.6389 156.245 12.3442H151.914Z" fill="url(#paint11_angular_11_38)"/>
<path d="M164.511 23.9022C163.258 23.9022 162.128 23.6259 161.119 23.0732C160.126 22.5206 159.34 21.7311 158.759 20.7048C158.194 19.6785 157.911 18.4784 157.911 17.1047C157.911 15.7468 158.201 14.5547 158.782 13.5284C159.363 12.4863 160.157 11.6889 161.165 11.1362C162.174 10.5836 163.304 10.3073 164.557 10.3073C165.81 10.3073 166.94 10.5836 167.948 11.1362C168.957 11.6889 169.751 12.4863 170.332 13.5284C170.912 14.5547 171.203 15.7468 171.203 17.1047C171.203 18.4626 170.905 19.6627 170.309 20.7048C169.728 21.7311 168.926 22.5206 167.903 23.0732C166.894 23.6259 165.764 23.9022 164.511 23.9022ZM164.511 20.3969C165.26 20.3969 165.894 20.1127 166.413 19.5442C166.948 18.9758 167.215 18.1626 167.215 17.1047C167.215 16.0468 166.955 15.2337 166.436 14.6652C165.932 14.0968 165.305 13.8126 164.557 13.8126C163.793 13.8126 163.159 14.0968 162.655 14.6652C162.151 15.2179 161.899 16.031 161.899 17.1047C161.899 18.1626 162.143 18.9758 162.632 19.5442C163.136 20.1127 163.762 20.3969 164.511 20.3969Z" fill="url(#paint12_angular_11_38)"/>
<path d="M172.502 17.0811C172.502 15.7231 172.747 14.531 173.236 13.5047C173.74 12.4784 174.42 11.6889 175.275 11.1362C176.131 10.5836 177.086 10.3073 178.14 10.3073C178.98 10.3073 179.744 10.4889 180.431 10.852C181.134 11.2152 181.684 11.7047 182.081 12.3205V6.18619H186V23.7127H182.081V21.818C181.715 22.4495 181.188 22.9548 180.5 23.3338C179.828 23.7127 179.041 23.9022 178.14 23.9022C177.086 23.9022 176.131 23.6259 175.275 23.0732C174.42 22.5048 173.74 21.7074 173.236 20.6811C172.747 19.639 172.502 18.439 172.502 17.0811ZM182.081 17.1047C182.081 16.0942 181.806 15.2968 181.256 14.7126C180.722 14.1284 180.065 13.8363 179.286 13.8363C178.506 13.8363 177.842 14.1284 177.292 14.7126C176.757 15.281 176.49 16.0705 176.49 17.0811C176.49 18.0916 176.757 18.8969 177.292 19.4969C177.842 20.0811 178.506 20.3732 179.286 20.3732C180.065 20.3732 180.722 20.0811 181.256 19.4969C181.806 18.9127 182.081 18.1153 182.081 17.1047Z" fill="url(#paint13_angular_11_38)"/>
<defs>
<radialGradient id="paint0_angular_11_38" cx="0" cy="0" r="1" gradientUnits="userSpaceOnUse" gradientTransform="translate(-9.60638 10.581) rotate(-0.232858) scale(260.442 93.0265)">
<stop offset="0.00269395" stop-color="#D3C11B" stop-opacity="0.67"/>
<stop offset="0.0115445" stop-color="#23ACA4"/>
<stop offset="0.239583" stop-color="#517E70" stop-opacity="0.894807"/>
<stop offset="0.645833" stop-color="#E3B616" stop-opacity="0.706182"/>
</radialGradient>
<radialGradient id="paint1_angular_11_38" cx="0" cy="0" r="1" gradientUnits="userSpaceOnUse" gradientTransform="translate(-9.60638 10.581) rotate(-0.232858) scale(260.442 93.0265)">
<stop offset="0.00269395" stop-color="#D3C11B" stop-opacity="0.67"/>
<stop offset="0.0115445" stop-color="#23ACA4"/>
<stop offset="0.239583" stop-color="#517E70" stop-opacity="0.894807"/>
<stop offset="0.645833" stop-color="#E3B616" stop-opacity="0.706182"/>
</radialGradient>
<radialGradient id="paint2_angular_11_38" cx="0" cy="0" r="1" gradientUnits="userSpaceOnUse" gradientTransform="translate(-9.60638 10.581) rotate(-0.232858) scale(260.442 93.0265)">
<stop offset="0.00269395" stop-color="#D3C11B" stop-opacity="0.67"/>
<stop offset="0.0115445" stop-color="#23ACA4"/>
<stop offset="0.239583" stop-color="#517E70" stop-opacity="0.894807"/>
<stop offset="0.645833" stop-color="#E3B616" stop-opacity="0.706182"/>
</radialGradient>
<radialGradient id="paint3_angular_11_38" cx="0" cy="0" r="1" gradientUnits="userSpaceOnUse" gradientTransform="translate(-9.60638 10.581) rotate(-0.232858) scale(260.442 93.0265)">
<stop offset="0.00269395" stop-color="#D3C11B" stop-opacity="0.67"/>
<stop offset="0.0115445" stop-color="#23ACA4"/>
<stop offset="0.239583" stop-color="#517E70" stop-opacity="0.894807"/>
<stop offset="0.645833" stop-color="#E3B616" stop-opacity="0.706182"/>
</radialGradient>
<radialGradient id="paint4_angular_11_38" cx="0" cy="0" r="1" gradientUnits="userSpaceOnUse" gradientTransform="translate(-9.60638 10.581) rotate(-0.232858) scale(260.442 93.0265)">
<stop offset="0.00269395" stop-color="#D3C11B" stop-opacity="0.67"/>
<stop offset="0.0115445" stop-color="#23ACA4"/>
<stop offset="0.239583" stop-color="#517E70" stop-opacity="0.894807"/>
<stop offset="0.645833" stop-color="#E3B616" stop-opacity="0.706182"/>
</radialGradient>
<radialGradient id="paint5_angular_11_38" cx="0" cy="0" r="1" gradientUnits="userSpaceOnUse" gradientTransform="translate(-9.60638 10.581) rotate(-0.232858) scale(260.442 93.0265)">
<stop offset="0.00269395" stop-color="#D3C11B" stop-opacity="0.67"/>
<stop offset="0.0115445" stop-color="#23ACA4"/>
<stop offset="0.239583" stop-color="#517E70" stop-opacity="0.894807"/>
<stop offset="0.645833" stop-color="#E3B616" stop-opacity="0.706182"/>
</radialGradient>
<radialGradient id="paint6_angular_11_38" cx="0" cy="0" r="1" gradientUnits="userSpaceOnUse" gradientTransform="translate(-9.60638 10.581) rotate(-0.232858) scale(260.442 93.0265)">
<stop offset="0.00269395" stop-color="#D3C11B" stop-opacity="0.67"/>
<stop offset="0.0115445" stop-color="#23ACA4"/>
<stop offset="0.239583" stop-color="#517E70" stop-opacity="0.894807"/>
<stop offset="0.645833" stop-color="#E3B616" stop-opacity="0.706182"/>
</radialGradient>
<radialGradient id="paint7_angular_11_38" cx="0" cy="0" r="1" gradientUnits="userSpaceOnUse" gradientTransform="translate(-9.60638 10.581) rotate(-0.232858) scale(260.442 93.0265)">
<stop offset="0.00269395" stop-color="#D3C11B" stop-opacity="0.67"/>
<stop offset="0.0115445" stop-color="#23ACA4"/>
<stop offset="0.239583" stop-color="#517E70" stop-opacity="0.894807"/>
<stop offset="0.645833" stop-color="#E3B616" stop-opacity="0.706182"/>
</radialGradient>
<radialGradient id="paint8_angular_11_38" cx="0" cy="0" r="1" gradientUnits="userSpaceOnUse" gradientTransform="translate(-9.60638 10.581) rotate(-0.232858) scale(260.442 93.0265)">
<stop offset="0.00269395" stop-color="#D3C11B" stop-opacity="0.67"/>
<stop offset="0.0115445" stop-color="#23ACA4"/>
<stop offset="0.239583" stop-color="#517E70" stop-opacity="0.894807"/>
<stop offset="0.645833" stop-color="#E3B616" stop-opacity="0.706182"/>
</radialGradient>
<radialGradient id="paint9_angular_11_38" cx="0" cy="0" r="1" gradientUnits="userSpaceOnUse" gradientTransform="translate(-9.60638 10.581) rotate(-0.232858) scale(260.442 93.0265)">
<stop offset="0.00269395" stop-color="#D3C11B" stop-opacity="0.67"/>
<stop offset="0.0115445" stop-color="#23ACA4"/>
<stop offset="0.239583" stop-color="#517E70" stop-opacity="0.894807"/>
<stop offset="0.645833" stop-color="#E3B616" stop-opacity="0.706182"/>
</radialGradient>
<radialGradient id="paint10_angular_11_38" cx="0" cy="0" r="1" gradientUnits="userSpaceOnUse" gradientTransform="translate(-9.60638 10.581) rotate(-0.232858) scale(260.442 93.0265)">
<stop offset="0.00269395" stop-color="#D3C11B" stop-opacity="0.67"/>
<stop offset="0.0115445" stop-color="#23ACA4"/>
<stop offset="0.239583" stop-color="#517E70" stop-opacity="0.894807"/>
<stop offset="0.645833" stop-color="#E3B616" stop-opacity="0.706182"/>
</radialGradient>
<radialGradient id="paint11_angular_11_38" cx="0" cy="0" r="1" gradientUnits="userSpaceOnUse" gradientTransform="translate(-9.60638 10.581) rotate(-0.232858) scale(260.442 93.0265)">
<stop offset="0.00269395" stop-color="#D3C11B" stop-opacity="0.67"/>
<stop offset="0.0115445" stop-color="#23ACA4"/>
<stop offset="0.239583" stop-color="#517E70" stop-opacity="0.894807"/>
<stop offset="0.645833" stop-color="#E3B616" stop-opacity="0.706182"/>
</radialGradient>
<radialGradient id="paint12_angular_11_38" cx="0" cy="0" r="1" gradientUnits="userSpaceOnUse" gradientTransform="translate(-9.60638 10.581) rotate(-0.232858) scale(260.442 93.0265)">
<stop offset="0.00269395" stop-color="#D3C11B" stop-opacity="0.67"/>
<stop offset="0.0115445" stop-color="#23ACA4"/>
<stop offset="0.239583" stop-color="#517E70" stop-opacity="0.894807"/>
<stop offset="0.645833" stop-color="#E3B616" stop-opacity="0.706182"/>
</radialGradient>
<radialGradient id="paint13_angular_11_38" cx="0" cy="0" r="1" gradientUnits="userSpaceOnUse" gradientTransform="translate(-9.60638 10.581) rotate(-0.232858) scale(260.442 93.0265)">
<stop offset="0.00269395" stop-color="#D3C11B" stop-opacity="0.67"/>
<stop offset="0.0115445" stop-color="#23ACA4"/>
<stop offset="0.239583" stop-color="#517E70" stop-opacity="0.894807"/>
<stop offset="0.645833" stop-color="#E3B616" stop-opacity="0.706182"/>
</radialGradient>
</defs>
</svg>
