<svg width="186" height="22" viewBox="0 0 186 22" fill="none" xmlns="http://www.w3.org/2000/svg">
<path d="M10.4727 5.0862V8.33097H3.91867V11.8363H8.82274V14.9863H3.91867V21.7127H0V5.0862H10.4727Z" fill="url(#paint0_angular_10_4)"/>
<path d="M18.353 21.9022C17.1003 21.9022 15.9697 21.6259 14.9614 21.0732C13.9684 20.5206 13.1816 19.7311 12.6011 18.7048C12.0358 17.6784 11.7532 16.4784 11.7532 15.1047C11.7532 13.7468 12.0434 12.5547 12.624 11.5284C13.2045 10.4863 13.9989 9.68888 15.0073 9.13624C16.0156 8.58361 17.1461 8.30729 18.3989 8.30729C19.6516 8.30729 20.7821 8.58361 21.7905 9.13624C22.7988 9.68888 23.5932 10.4863 24.1737 11.5284C24.7543 12.5547 25.0446 13.7468 25.0446 15.1047C25.0446 16.4626 24.7466 17.6627 24.1508 18.7048C23.5703 19.7311 22.7682 20.5206 21.7446 21.0732C20.7363 21.6259 19.6058 21.9022 18.353 21.9022ZM18.353 18.3969C19.1016 18.3969 19.7356 18.1127 20.2551 17.5442C20.7898 16.9758 21.0571 16.1626 21.0571 15.1047C21.0571 14.0468 20.7974 13.2337 20.278 12.6652C19.7738 12.0968 19.1475 11.8126 18.3989 11.8126C17.635 11.8126 17.001 12.0968 16.4968 12.6652C15.9927 13.2179 15.7406 14.031 15.7406 15.1047C15.7406 16.1626 15.985 16.9758 16.4739 17.5442C16.9781 18.1127 17.6044 18.3969 18.353 18.3969Z" fill="url(#paint1_angular_10_4)"/>
<path d="M31.0422 4.18619V21.7127H27.1235V4.18619H31.0422Z" fill="url(#paint2_angular_10_4)"/>
<path d="M37.8007 4.18619V21.7127H33.882V4.18619H37.8007Z" fill="url(#paint3_angular_10_4)"/>
<path d="M46.4612 21.9022C45.2084 21.9022 44.0779 21.6259 43.0696 21.0732C42.0766 20.5206 41.2898 19.7311 40.7092 18.7048C40.144 17.6784 39.8613 16.4784 39.8613 15.1047C39.8613 13.7468 40.1516 12.5547 40.7321 11.5284C41.3127 10.4863 42.1071 9.68888 43.1154 9.13624C44.1237 8.58361 45.2543 8.30729 46.507 8.30729C47.7598 8.30729 48.8903 8.58361 49.8986 9.13624C50.9069 9.68888 51.7014 10.4863 52.2819 11.5284C52.8625 12.5547 53.1527 13.7468 53.1527 15.1047C53.1527 16.4626 52.8548 17.6627 52.259 18.7048C51.6785 19.7311 50.8764 20.5206 49.8528 21.0732C48.8445 21.6259 47.7139 21.9022 46.4612 21.9022ZM46.4612 18.3969C47.2098 18.3969 47.8438 18.1127 48.3632 17.5442C48.898 16.9758 49.1653 16.1626 49.1653 15.1047C49.1653 14.0468 48.9056 13.2337 48.3862 12.6652C47.882 12.0968 47.2556 11.8126 46.507 11.8126C45.7432 11.8126 45.1091 12.0968 44.605 12.6652C44.1008 13.2179 43.8487 14.031 43.8487 15.1047C43.8487 16.1626 44.0932 16.9758 44.5821 17.5442C45.0862 18.1127 45.7126 18.3969 46.4612 18.3969Z" fill="url(#paint4_angular_10_4)"/>
<path d="M73.5875 8.49676L70.1272 21.7127H65.796L63.7794 13.1389L61.694 21.7127H57.3858L53.9025 8.49676H57.8212L59.6316 17.9469L61.7857 8.49676H65.9335L68.1106 17.8995L69.898 8.49676H73.5875Z" fill="url(#paint5_angular_10_4)"/>
<path d="M87.1359 14.8916C87.1359 15.2705 87.1129 15.6653 87.0671 16.0758H78.1985C78.2596 16.8969 78.5117 17.5284 78.9548 17.9706C79.4131 18.3969 79.9707 18.61 80.6277 18.61C81.6054 18.61 82.2853 18.1837 82.6672 17.3311H86.838C86.6241 18.1995 86.2345 18.9811 85.6692 19.6758C85.1192 20.3706 84.4241 20.9153 83.5838 21.3101C82.7436 21.7048 81.804 21.9022 80.7652 21.9022C79.5124 21.9022 78.3971 21.6259 77.4194 21.0732C76.4416 20.5206 75.6778 19.7311 75.1278 18.7048C74.5778 17.6784 74.3028 16.4784 74.3028 15.1047C74.3028 13.731 74.5701 12.531 75.1049 11.5047C75.6548 10.4784 76.4187 9.68888 77.3965 9.13624C78.3742 8.58361 79.4971 8.30729 80.7652 8.30729C82.0026 8.30729 83.1026 8.57571 84.0651 9.11256C85.0276 9.64941 85.7762 10.4152 86.3109 11.41C86.8609 12.4047 87.1359 13.5652 87.1359 14.8916ZM83.1255 13.8258C83.1255 13.131 82.8964 12.5784 82.438 12.1679C81.9797 11.7573 81.4068 11.5521 80.7193 11.5521C80.0624 11.5521 79.5048 11.7494 79.0464 12.1442C78.6034 12.5389 78.3284 13.0994 78.2215 13.8258H83.1255Z" fill="url(#paint6_angular_10_4)"/>
<path d="M93.1218 10.6994C93.5802 9.9731 94.1531 9.40467 94.8405 8.99414C95.528 8.56782 96.2919 8.35466 97.1322 8.35466V12.6415H96.0551C95.0773 12.6415 94.344 12.8626 93.8551 13.3047C93.3663 13.731 93.1218 14.4889 93.1218 15.5784V21.7127H89.2032V8.49676H93.1218V10.6994Z" fill="url(#paint7_angular_10_4)"/>
<path d="M104.207 21.9022C103.092 21.9022 102.099 21.7048 101.228 21.3101C100.357 20.9153 99.6698 20.3785 99.1656 19.6995C98.6615 19.0048 98.3788 18.2311 98.3177 17.3784H102.191C102.236 17.8363 102.443 18.2074 102.809 18.4916C103.176 18.7758 103.627 18.9179 104.161 18.9179C104.65 18.9179 105.025 18.8232 105.284 18.6337C105.559 18.4285 105.697 18.1679 105.697 17.8521C105.697 17.4732 105.506 17.1969 105.124 17.0232C104.742 16.8337 104.123 16.6284 103.268 16.4074C102.351 16.1863 101.587 15.9574 100.976 15.7205C100.365 15.4679 99.8378 15.0811 99.3948 14.56C98.9517 14.0231 98.7302 13.3047 98.7302 12.4047C98.7302 11.6468 98.9288 10.96 99.326 10.3442C99.7385 9.71257 100.334 9.21519 101.114 8.85203C101.908 8.48887 102.847 8.30729 103.932 8.30729C105.536 8.30729 106.797 8.71782 107.713 9.53888C108.645 10.3599 109.18 11.4494 109.318 12.8073H105.697C105.636 12.3494 105.437 11.9863 105.101 11.7179C104.78 11.4494 104.352 11.3152 103.818 11.3152C103.359 11.3152 103.008 11.41 102.763 11.5994C102.519 11.7731 102.397 12.0179 102.397 12.3337C102.397 12.7126 102.588 12.9968 102.97 13.1863C103.367 13.3758 103.978 13.5652 104.803 13.7547C105.75 14.0074 106.522 14.26 107.118 14.5126C107.713 14.7495 108.233 15.1442 108.676 15.6968C109.134 16.2337 109.371 16.96 109.386 17.8758C109.386 18.6495 109.172 19.3443 108.745 19.9601C108.332 20.5601 107.729 21.0338 106.934 21.3811C106.155 21.7285 105.246 21.9022 104.207 21.9022Z" fill="url(#paint8_angular_10_4)"/>
<path d="M117.479 20.51C117.106 19.9395 116.883 19.3073 116.808 18.6134C116.733 17.9041 116.733 17.1639 116.808 16.393C116.883 15.622 117.002 14.8433 117.166 14.0569C117.33 13.2705 117.472 12.5149 117.591 11.7902C117.711 11.0501 117.778 10.3639 117.793 9.73169C117.808 9.08406 117.703 8.52896 117.479 8.06637C117.36 7.81966 117.196 7.70401 116.987 7.71943C116.793 7.71943 116.577 7.75027 116.338 7.81195C116.114 7.85821 115.883 7.87363 115.644 7.85821C115.421 7.84279 115.219 7.6963 115.04 7.41875C115.055 7.35707 115.115 7.27997 115.219 7.18746C115.309 7.07952 115.376 7.01784 115.421 7.00242C116.763 6.80197 117.882 6.94845 118.777 7.44188C119.688 7.91989 120.411 8.60606 120.948 9.50039C121.485 10.3793 121.851 11.3893 122.045 12.5303C122.254 13.6714 122.328 14.8047 122.269 15.9304C122.209 17.056 122.037 18.1045 121.754 19.076C121.47 20.032 121.112 20.7721 120.68 21.2964C120.247 21.8206 119.755 22.0519 119.203 21.9903C118.651 21.9286 118.076 21.4352 117.479 20.51ZM118.643 19.7005C118.658 19.7467 118.703 19.8084 118.777 19.8855C118.852 19.9626 118.927 20.0474 119.001 20.1399C119.091 20.2324 119.173 20.3172 119.247 20.3943C119.322 20.456 119.374 20.4946 119.404 20.51C119.956 20.1862 120.366 19.7467 120.635 19.1916C120.903 18.6365 121.06 18.0197 121.105 17.3413C121.165 16.6628 121.135 15.9535 121.015 15.2134C120.911 14.4578 120.754 13.7331 120.545 13.0392C120.337 12.3453 120.09 11.7054 119.807 11.1195C119.538 10.5335 119.277 10.0555 119.024 9.68543C119.009 9.88588 118.979 10.1943 118.934 10.6106C118.889 11.0269 118.845 11.4972 118.8 12.0215C118.755 12.5458 118.703 13.1009 118.643 13.6868C118.583 14.2728 118.524 14.8356 118.464 15.3753C118.419 15.8995 118.375 16.3698 118.33 16.7861C118.285 17.2025 118.255 17.5109 118.24 17.7113C118.225 17.8655 118.225 18.0428 118.24 18.2433C118.27 18.4283 118.307 18.6134 118.352 18.7984C118.397 18.9834 118.442 19.1608 118.486 19.3304C118.546 19.4846 118.598 19.6079 118.643 19.7005Z" fill="url(#paint9_angular_10_4)"/>
<path d="M128.132 21.3195C128.102 21.2578 128.065 21.173 128.02 21.0651C127.99 20.9417 127.953 20.8184 127.908 20.695C127.878 20.5562 127.841 20.4329 127.796 20.3249C127.766 20.217 127.751 20.1399 127.751 20.0937C127.737 19.924 127.714 19.6619 127.684 19.3073C127.669 18.9526 127.647 18.5517 127.617 18.1045C127.587 17.6574 127.557 17.1871 127.528 16.6936C127.513 16.1848 127.49 15.7068 127.461 15.2596C127.431 14.8124 127.408 14.4115 127.393 14.0569C127.378 13.7022 127.371 13.4401 127.371 13.2705C127.341 13.2551 127.274 13.2474 127.17 13.2474C127.065 13.2474 126.998 13.2551 126.968 13.2705C126.849 13.3013 126.64 13.3553 126.342 13.4324C126.058 13.5095 125.752 13.5943 125.424 13.6868L124.484 13.9181C124.186 13.9952 123.984 14.0492 123.88 14.08L122.895 13.0623L127.371 11.6746L128.132 2.83913C128.192 2.26861 128.363 1.78289 128.647 1.38198C128.93 0.981071 129.266 0.66497 129.654 0.433676C130.042 0.202382 130.437 0.0636058 130.84 0.017347C131.258 -0.0289117 131.616 0.017347 131.914 0.156123C132.212 0.27948 132.421 0.503064 132.541 0.826875C132.66 1.13527 132.623 1.53618 132.429 2.0296C132.205 2.19922 132.026 2.26861 131.892 2.23777C131.772 2.20693 131.675 2.13754 131.601 2.0296C131.541 1.90625 131.489 1.76747 131.444 1.61327C131.399 1.45908 131.34 1.33572 131.265 1.2432C130.982 0.950232 130.728 0.857715 130.504 0.965652C130.295 1.05817 130.109 1.29717 129.945 1.68266C129.78 2.05273 129.639 2.52303 129.519 3.09355C129.4 3.66408 129.303 4.28086 129.228 4.94391C129.154 5.59153 129.094 6.25457 129.049 6.93303C129.005 7.59607 128.967 8.20515 128.938 8.76025C128.923 9.31536 128.915 9.78566 128.915 10.1711V10.865C129.214 10.9575 129.542 10.9498 129.9 10.8419C130.273 10.734 130.646 10.5798 131.019 10.3793C131.407 10.1789 131.787 9.97069 132.16 9.75482C132.533 9.52352 132.884 9.3462 133.212 9.22284C133.54 9.09948 133.831 9.06094 134.085 9.10719C134.353 9.15345 134.57 9.3462 134.734 9.68543L133.995 10.4718L129.318 12.4841L128.915 12.8773C128.9 12.9081 128.885 13.124 128.87 13.5249C128.87 13.9258 128.87 14.4038 128.87 14.9589C128.87 15.514 128.87 16.0846 128.87 16.6705C128.885 17.241 128.9 17.7113 128.915 18.0814C128.93 18.251 128.982 18.5054 129.072 18.8447C129.176 19.1839 129.258 19.5463 129.318 19.9317C129.393 20.3172 129.408 20.6796 129.363 21.0188C129.333 21.3426 129.184 21.5739 128.915 21.7127C128.751 21.7898 128.594 21.7744 128.445 21.6664C128.311 21.5585 128.206 21.4429 128.132 21.3195Z" fill="url(#paint10_angular_10_4)"/>
<path d="M151.914 10.3442C151.623 9.79151 151.203 9.37309 150.653 9.08887C150.118 8.78887 149.484 8.63887 148.751 8.63887C147.483 8.63887 146.467 9.07309 145.703 9.94152C144.939 10.7942 144.557 11.9389 144.557 13.3758C144.557 14.9074 144.955 16.1074 145.749 16.9758C146.559 17.8285 147.666 18.2548 149.072 18.2548C150.034 18.2548 150.844 18.0021 151.501 17.4969C152.173 16.9916 152.662 16.2653 152.968 15.3179H147.995V12.3337H156.52V16.0995C156.229 17.11 155.733 18.0495 155.03 18.9179C154.343 19.7864 153.464 20.489 152.395 21.0259C151.325 21.5627 150.118 21.8311 148.774 21.8311C147.185 21.8311 145.764 21.4759 144.512 20.7653C143.274 20.039 142.304 19.0364 141.601 17.7574C140.914 16.4784 140.57 15.0179 140.57 13.3758C140.57 11.7336 140.914 10.2731 141.601 8.99414C142.304 7.69939 143.274 6.69674 144.512 5.98621C145.749 5.25988 147.162 4.89672 148.751 4.89672C150.676 4.89672 152.295 5.37831 153.609 6.34147C154.938 7.30464 155.817 8.63887 156.245 10.3442H151.914Z" fill="url(#paint11_angular_10_4)"/>
<path d="M164.511 21.9022C163.258 21.9022 162.128 21.6259 161.119 21.0732C160.126 20.5206 159.34 19.7311 158.759 18.7048C158.194 17.6784 157.911 16.4784 157.911 15.1047C157.911 13.7468 158.201 12.5547 158.782 11.5284C159.363 10.4863 160.157 9.68888 161.165 9.13624C162.174 8.58361 163.304 8.30729 164.557 8.30729C165.81 8.30729 166.94 8.58361 167.948 9.13624C168.957 9.68888 169.751 10.4863 170.332 11.5284C170.912 12.5547 171.203 13.7468 171.203 15.1047C171.203 16.4626 170.905 17.6627 170.309 18.7048C169.728 19.7311 168.926 20.5206 167.903 21.0732C166.894 21.6259 165.764 21.9022 164.511 21.9022ZM164.511 18.3969C165.26 18.3969 165.894 18.1127 166.413 17.5442C166.948 16.9758 167.215 16.1626 167.215 15.1047C167.215 14.0468 166.955 13.2337 166.436 12.6652C165.932 12.0968 165.305 11.8126 164.557 11.8126C163.793 11.8126 163.159 12.0968 162.655 12.6652C162.151 13.2179 161.899 14.031 161.899 15.1047C161.899 16.1626 162.143 16.9758 162.632 17.5442C163.136 18.1127 163.762 18.3969 164.511 18.3969Z" fill="url(#paint12_angular_10_4)"/>
<path d="M172.502 15.0811C172.502 13.7231 172.747 12.531 173.236 11.5047C173.74 10.4784 174.42 9.68888 175.275 9.13624C176.131 8.58361 177.086 8.30729 178.14 8.30729C178.98 8.30729 179.744 8.48887 180.431 8.85203C181.134 9.21519 181.684 9.70467 182.081 10.3205V4.18619H186V21.7127H182.081V19.8179C181.715 20.4495 181.188 20.9548 180.5 21.3338C179.828 21.7127 179.041 21.9022 178.14 21.9022C177.086 21.9022 176.131 21.6259 175.275 21.0732C174.42 20.5048 173.74 19.7074 173.236 18.6811C172.747 17.639 172.502 16.439 172.502 15.0811ZM182.081 15.1047C182.081 14.0942 181.806 13.2968 181.256 12.7126C180.722 12.1284 180.065 11.8363 179.286 11.8363C178.506 11.8363 177.842 12.1284 177.292 12.7126C176.757 13.281 176.49 14.0705 176.49 15.0811C176.49 16.0916 176.757 16.8969 177.292 17.4969C177.842 18.0811 178.506 18.3732 179.286 18.3732C180.065 18.3732 180.722 18.0811 181.256 17.4969C181.806 16.9127 182.081 16.1153 182.081 15.1047Z" fill="url(#paint13_angular_10_4)"/>
<defs>
<radialGradient id="paint0_angular_10_4" cx="0" cy="0" r="1" gradientUnits="userSpaceOnUse" gradientTransform="translate(-8.28714 8.86111) rotate(-0.233766) scale(224.675 80.5641)">
<stop offset="0.00269395" stop-color="#D3C11B" stop-opacity="0.67"/>
<stop offset="0.0115445" stop-color="#23ACA4"/>
<stop offset="0.239583" stop-color="#517E70" stop-opacity="0.894807"/>
<stop offset="0.645833" stop-color="#E3B616" stop-opacity="0.706182"/>
</radialGradient>
<radialGradient id="paint1_angular_10_4" cx="0" cy="0" r="1" gradientUnits="userSpaceOnUse" gradientTransform="translate(-8.28714 8.86111) rotate(-0.233766) scale(224.675 80.5641)">
<stop offset="0.00269395" stop-color="#D3C11B" stop-opacity="0.67"/>
<stop offset="0.0115445" stop-color="#23ACA4"/>
<stop offset="0.239583" stop-color="#517E70" stop-opacity="0.894807"/>
<stop offset="0.645833" stop-color="#E3B616" stop-opacity="0.706182"/>
</radialGradient>
<radialGradient id="paint2_angular_10_4" cx="0" cy="0" r="1" gradientUnits="userSpaceOnUse" gradientTransform="translate(-8.28714 8.86111) rotate(-0.233766) scale(224.675 80.5641)">
<stop offset="0.00269395" stop-color="#D3C11B" stop-opacity="0.67"/>
<stop offset="0.0115445" stop-color="#23ACA4"/>
<stop offset="0.239583" stop-color="#517E70" stop-opacity="0.894807"/>
<stop offset="0.645833" stop-color="#E3B616" stop-opacity="0.706182"/>
</radialGradient>
<radialGradient id="paint3_angular_10_4" cx="0" cy="0" r="1" gradientUnits="userSpaceOnUse" gradientTransform="translate(-8.28714 8.86111) rotate(-0.233766) scale(224.675 80.5641)">
<stop offset="0.00269395" stop-color="#D3C11B" stop-opacity="0.67"/>
<stop offset="0.0115445" stop-color="#23ACA4"/>
<stop offset="0.239583" stop-color="#517E70" stop-opacity="0.894807"/>
<stop offset="0.645833" stop-color="#E3B616" stop-opacity="0.706182"/>
</radialGradient>
<radialGradient id="paint4_angular_10_4" cx="0" cy="0" r="1" gradientUnits="userSpaceOnUse" gradientTransform="translate(-8.28714 8.86111) rotate(-0.233766) scale(224.675 80.5641)">
<stop offset="0.00269395" stop-color="#D3C11B" stop-opacity="0.67"/>
<stop offset="0.0115445" stop-color="#23ACA4"/>
<stop offset="0.239583" stop-color="#517E70" stop-opacity="0.894807"/>
<stop offset="0.645833" stop-color="#E3B616" stop-opacity="0.706182"/>
</radialGradient>
<radialGradient id="paint5_angular_10_4" cx="0" cy="0" r="1" gradientUnits="userSpaceOnUse" gradientTransform="translate(-8.28714 8.86111) rotate(-0.233766) scale(224.675 80.5641)">
<stop offset="0.00269395" stop-color="#D3C11B" stop-opacity="0.67"/>
<stop offset="0.0115445" stop-color="#23ACA4"/>
<stop offset="0.239583" stop-color="#517E70" stop-opacity="0.894807"/>
<stop offset="0.645833" stop-color="#E3B616" stop-opacity="0.706182"/>
</radialGradient>
<radialGradient id="paint6_angular_10_4" cx="0" cy="0" r="1" gradientUnits="userSpaceOnUse" gradientTransform="translate(-8.28714 8.86111) rotate(-0.233766) scale(224.675 80.5641)">
<stop offset="0.00269395" stop-color="#D3C11B" stop-opacity="0.67"/>
<stop offset="0.0115445" stop-color="#23ACA4"/>
<stop offset="0.239583" stop-color="#517E70" stop-opacity="0.894807"/>
<stop offset="0.645833" stop-color="#E3B616" stop-opacity="0.706182"/>
</radialGradient>
<radialGradient id="paint7_angular_10_4" cx="0" cy="0" r="1" gradientUnits="userSpaceOnUse" gradientTransform="translate(-8.28714 8.86111) rotate(-0.233766) scale(224.675 80.5641)">
<stop offset="0.00269395" stop-color="#D3C11B" stop-opacity="0.67"/>
<stop offset="0.0115445" stop-color="#23ACA4"/>
<stop offset="0.239583" stop-color="#517E70" stop-opacity="0.894807"/>
<stop offset="0.645833" stop-color="#E3B616" stop-opacity="0.706182"/>
</radialGradient>
<radialGradient id="paint8_angular_10_4" cx="0" cy="0" r="1" gradientUnits="userSpaceOnUse" gradientTransform="translate(-8.28714 8.86111) rotate(-0.233766) scale(224.675 80.5641)">
<stop offset="0.00269395" stop-color="#D3C11B" stop-opacity="0.67"/>
<stop offset="0.0115445" stop-color="#23ACA4"/>
<stop offset="0.239583" stop-color="#517E70" stop-opacity="0.894807"/>
<stop offset="0.645833" stop-color="#E3B616" stop-opacity="0.706182"/>
</radialGradient>
<radialGradient id="paint9_angular_10_4" cx="0" cy="0" r="1" gradientUnits="userSpaceOnUse" gradientTransform="translate(-8.28714 8.86111) rotate(-0.233766) scale(224.675 80.5641)">
<stop offset="0.00269395" stop-color="#D3C11B" stop-opacity="0.67"/>
<stop offset="0.0115445" stop-color="#23ACA4"/>
<stop offset="0.239583" stop-color="#517E70" stop-opacity="0.894807"/>
<stop offset="0.645833" stop-color="#E3B616" stop-opacity="0.706182"/>
</radialGradient>
<radialGradient id="paint10_angular_10_4" cx="0" cy="0" r="1" gradientUnits="userSpaceOnUse" gradientTransform="translate(-8.28714 8.86111) rotate(-0.233766) scale(224.675 80.5641)">
<stop offset="0.00269395" stop-color="#D3C11B" stop-opacity="0.67"/>
<stop offset="0.0115445" stop-color="#23ACA4"/>
<stop offset="0.239583" stop-color="#517E70" stop-opacity="0.894807"/>
<stop offset="0.645833" stop-color="#E3B616" stop-opacity="0.706182"/>
</radialGradient>
<radialGradient id="paint11_angular_10_4" cx="0" cy="0" r="1" gradientUnits="userSpaceOnUse" gradientTransform="translate(-8.28714 8.86111) rotate(-0.233766) scale(224.675 80.5641)">
<stop offset="0.00269395" stop-color="#D3C11B" stop-opacity="0.67"/>
<stop offset="0.0115445" stop-color="#23ACA4"/>
<stop offset="0.239583" stop-color="#517E70" stop-opacity="0.894807"/>
<stop offset="0.645833" stop-color="#E3B616" stop-opacity="0.706182"/>
</radialGradient>
<radialGradient id="paint12_angular_10_4" cx="0" cy="0" r="1" gradientUnits="userSpaceOnUse" gradientTransform="translate(-8.28714 8.86111) rotate(-0.233766) scale(224.675 80.5641)">
<stop offset="0.00269395" stop-color="#D3C11B" stop-opacity="0.67"/>
<stop offset="0.0115445" stop-color="#23ACA4"/>
<stop offset="0.239583" stop-color="#517E70" stop-opacity="0.894807"/>
<stop offset="0.645833" stop-color="#E3B616" stop-opacity="0.706182"/>
</radialGradient>
<radialGradient id="paint13_angular_10_4" cx="0" cy="0" r="1" gradientUnits="userSpaceOnUse" gradientTransform="translate(-8.28714 8.86111) rotate(-0.233766) scale(224.675 80.5641)">
<stop offset="0.00269395" stop-color="#D3C11B" stop-opacity="0.67"/>
<stop offset="0.0115445" stop-color="#23ACA4"/>
<stop offset="0.239583" stop-color="#517E70" stop-opacity="0.894807"/>
<stop offset="0.645833" stop-color="#E3B616" stop-opacity="0.706182"/>
</radialGradient>
</defs>
</svg>
