<svg width="1043" height="316" viewBox="0 0 1043 316" fill="none" xmlns="http://www.w3.org/2000/svg">
<mask id="mask0" mask-type="alpha" maskUnits="userSpaceOnUse" x="0" y="0" width="1043" height="316">
<rect width="1043" height="316" rx="10" fill="#EDF8D5"/>
</mask>
<g mask="url(#mask0)">
<path d="M1051.87 174.436C1051.87 292.697 956.158 388.463 838.22 388.463C720.282 388.463 624.571 292.697 624.571 174.436C624.571 56.1749 720.282 -39.5908 838.22 -39.5908C956.158 -39.5908 1051.87 56.1749 1051.87 174.436Z" stroke="#F4FAE6" stroke-width="82"/>
<path d="M187 158C187 277.388 90.423 374 -28.5 374C-147.423 374 -244 277.388 -244 158C-244 38.6121 -147.423 -58 -28.5 -58C90.423 -58 187 38.6121 187 158Z" stroke="#F4FAE6" stroke-width="108"/>
<path d="M1168.26 174.436C1168.26 342.845 1032.13 479.363 864.215 479.363C696.297 479.363 560.167 342.845 560.167 174.436C560.167 6.02763 696.297 -130.49 864.215 -130.49C1032.13 -130.49 1168.26 6.02763 1168.26 174.436Z" stroke="#97D414" stroke-width="2"/>
<path d="M1172.51 174.436C1172.51 349.869 1030.21 492.087 854.666 492.087C679.126 492.087 536.824 349.869 536.824 174.436C536.824 -0.99707 679.126 -143.215 854.666 -143.215C1030.21 -143.215 1172.51 -0.99707 1172.51 174.436Z" stroke="#97D414" stroke-width="2"/>
</g>
</svg>
